<svg width="156" height="44" viewBox="0 0 44 44" fill="none" xmlns="http://www.w3.org/2000/svg">
<path opacity="0.3" d="M21.84 44C33.9019 44 43.68 34.1503 43.68 22C43.68 9.84974 33.9019 0 21.84 0C9.7781 0 0 9.84974 0 22C0 34.1503 9.7781 44 21.84 44Z" fill="white"/>
<path d="M30.5023 9.42859H12.5503C10.8199 9.42859 9.35999 10.8674 9.35999 12.6935V30.6783C9.35999 32.4491 10.7659 33.8879 12.5503 33.8879H30.5023C32.2326 33.8879 33.6385 32.4491 33.6385 30.6783V12.6382C33.6385 10.8674 32.2326 9.42859 30.5023 9.42859ZM21.5263 23.7611C17.0923 23.7611 13.4154 20.2748 13.0369 15.7371C12.9828 14.741 13.6858 13.9109 14.605 13.8556C15.5242 13.8003 16.3894 14.5197 16.4435 15.4604C16.6598 18.2826 19.0389 20.4408 21.8507 20.2194C24.338 20.0534 26.3387 18.0059 26.5009 15.4604C26.555 14.4643 27.3661 13.7449 28.3394 13.8003C28.826 13.8556 29.2586 14.077 29.583 14.409C29.9075 14.741 30.0156 15.2391 30.0156 15.6818C29.6371 20.2748 25.9602 23.7611 21.5263 23.7611Z" fill="white"/>
</svg>
